<svg width="76" height="32" viewBox="0 0 76 32" fill="none" xmlns="http://www.w3.org/2000/svg"
  aria-label="Vlife">
  <g clip-path="url(#clip0_3922_1207)">
    <path d="M40.1343 11.1353H44.9261V27.6064H40.1343V11.1353Z" fill="#2C8185"></path>
    <path
      d="M62.3964 5.49507C61.8732 5.07423 61.308 4.72402 60.7017 4.44298C60.3921 4.29931 60.0725 4.17258 59.7401 4.06616C58.9405 3.80979 58.1175 3.68402 57.2747 3.65548C56.0301 3.6134 54.8143 3.74594 53.6443 4.17306C53.0237 4.39944 52.4417 4.69451 51.9171 5.08439C51.3432 5.51055 50.9084 6.04989 50.5461 6.6468C50.1615 7.28241 49.888 7.95236 49.7378 8.65666C49.68 8.92948 49.6384 9.20616 49.6186 9.48962C49.5775 10.0744 49.5765 10.4145 49.5577 11.0008C49.5562 11.0414 49.5572 11.0825 49.5572 11.1348H47.1709V13.4619V14.8783H48.0411H49.5592V17.3496V27.5846H54.0456V19.3314V14.8739H56.7846L59.081 11.1352H54.04C54.04 11.1309 54.0395 11.1246 54.0395 11.1198V9.55638C54.0502 9.38127 54.0649 9.20326 54.0893 9.0267C54.2186 8.08152 54.8225 7.46816 55.7449 7.14455C55.8474 7.10827 55.9555 7.08118 56.0661 7.05797C56.6288 6.93945 57.2777 6.97912 57.8369 7.14455C59.3469 7.59054 59.936 8.53573 60.3582 9.05041L60.3627 9.0475L62.4938 5.57923C62.4603 5.55166 62.4288 5.52215 62.3954 5.49507H62.3964Z"
      fill="#2C8185"></path>
    <path
      d="M29.9029 5.14539C30.0206 5.14539 33.203 5.15796 34.6947 5.14539C34.6881 10.2196 34.6546 14.5784 34.6496 19.6541C34.649 20.3942 34.7186 21.1149 35.1072 21.7776C35.5603 22.5506 36.2534 22.9826 37.1967 23.0541C37.2769 23.0604 37.7969 23.1045 37.8893 23.1146V27.6064C37.1586 27.6137 36.0124 27.5382 35.3264 27.3462C32.4835 26.551 30.842 24.7002 30.1444 22.0369C29.9708 21.3742 29.9023 20.6921 29.9023 20.0096C29.9034 14.9156 29.9023 5.25761 29.9023 5.14587L29.9029 5.14539Z"
      fill="#2C8185"></path>
    <path
      d="M42.5269 9.39001C41.303 9.39001 40.3101 8.45933 40.3101 7.31195C40.3101 6.16408 41.3025 5.23389 42.5269 5.23389C43.7512 5.23389 44.7437 6.16408 44.7437 7.31195C44.7437 8.45933 43.7512 9.39001 42.5269 9.39001Z"
      fill="#2C8185"></path>
    <path
      d="M68.054 17.395H62.9897C63.3951 16.6196 63.9847 15.9956 64.7585 15.5226C65.309 15.1864 65.9017 14.9721 66.5359 14.8749C66.7932 14.8357 67.056 14.8134 67.3269 14.8134C68.2646 14.8134 69.0957 15.0562 69.8183 15.5404C70.5413 16.0261 71.0675 16.6443 71.3973 17.395H68.0545H68.054ZM75.9897 19.2114C75.9867 19.1432 75.9806 19.076 75.9755 19.0087C75.9704 18.9424 75.9669 18.8757 75.9603 18.8094C75.9547 18.749 75.9466 18.689 75.939 18.6285C75.9294 18.5463 75.9197 18.4645 75.907 18.3823C75.9035 18.3581 75.8994 18.3339 75.8954 18.3102C75.8 17.7022 75.6396 17.0927 75.4123 16.4813C75.3753 16.3802 75.3377 16.2786 75.2961 16.177C74.8268 15.0258 74.1169 14.0622 73.1656 13.2858C72.2147 12.5104 71.2374 11.9832 70.2364 11.7041C70.0182 11.6436 69.802 11.5923 69.5869 11.5449C68.8141 11.3747 68.0601 11.2861 67.3269 11.2861C66.3751 11.2861 65.4622 11.4061 64.5895 11.6446C64.2993 11.7239 64.0131 11.8168 63.732 11.9222C62.6031 12.3469 61.6329 12.9405 60.8221 13.7042C60.0098 14.468 59.376 15.3591 58.9194 16.3773C58.4627 17.395 58.2344 18.4742 58.2344 19.6134C58.2344 20.753 58.482 21.8312 58.9767 22.8499C59.4709 23.8677 60.1498 24.7587 61.0114 25.5225C61.8739 26.2863 62.8882 26.8803 64.0547 27.304C65.2212 27.7283 66.4385 27.9411 67.7065 27.9411C68.8983 27.9411 70.0588 27.7524 71.1872 27.3771C72.0112 27.1028 72.7571 26.7463 73.4259 26.3105L71.414 22.9709C70.3759 23.9291 69.1414 24.4128 67.707 24.4128C66.5405 24.4128 65.4754 24.0737 64.5114 23.3951C63.5478 22.7164 62.9141 21.8559 62.6097 20.8135H75.904C75.9674 20.4212 76.0004 20.0211 76.0004 19.6134C76.0004 19.4794 75.9968 19.3454 75.9902 19.2114H75.9897Z"
      fill="#2C8185"></path>
    <path
      d="M19.9808 15.6183L10.2286 0.00048372H-0.000488281L19.9803 32.0005L29.6696 16.4832C29.6701 11.5648 29.6686 5.00408 29.6686 4.91508C29.7893 4.91701 33.4142 4.91653 34.9394 4.91459C34.9379 6.12631 34.9424 7.235 34.9384 8.3819L39.9616 0H29.7325L19.9808 15.6179V15.6183Z"
      fill="#2ac3c7"></path>
  </g>
  <defs>
    <clipPath id="clip0_3922_1207">
      <rect width="76" height="32" fill="white"></rect>
    </clipPath>
  </defs>
</svg>